<?xml version="1.0" standalone="no"?>
<!DOCTYPE svg PUBLIC "-//W3C//DTD SVG 20010904//EN"
 "http://www.w3.org/TR/2001/REC-SVG-20010904/DTD/svg10.dtd">
<svg version="1.0" xmlns="http://www.w3.org/2000/svg"
 width="512.000000pt" height="512.000000pt" viewBox="0 0 512.000000 512.000000"
 preserveAspectRatio="xMidYMid meet">

<g transform="translate(0.000000,512.000000) scale(0.100000,-0.100000)"
fill="#000000" stroke="none">
<path d="M2351 4629 c-822 -86 -1518 -649 -1764 -1426 -70 -221 -99 -409 -99
-648 1 -337 65 -621 206 -910 107 -217 232 -390 412 -567 312 -306 688 -496
1139 -575 154 -26 501 -24 659 5 351 65 627 185 911 397 653 488 954 1324 769
2134 -14 61 -24 81 -55 112 -65 65 -155 65 -220 0 -51 -51 -56 -88 -30 -219
41 -201 50 -370 30 -550 -55 -511 -316 -959 -729 -1255 -176 -125 -432 -239
-645 -286 -778 -171 -1594 223 -1953 944 -234 469 -235 1056 -3 1540 98 204
197 341 368 506 401 387 992 563 1533 457 148 -29 210 -30 246 -2 71 52 92
130 55 201 -31 63 -67 82 -199 109 -213 42 -429 54 -631 33z"/>
<path d="M4420 4290 c-14 -6 -438 -423 -942 -928 l-918 -917 -302 302 c-324
323 -328 326 -409 309 -80 -16 -136 -100 -124 -185 6 -45 17 -56 383 -423 408
-408 398 -400 489 -383 34 6 147 115 1026 993 560 561 994 1002 1003 1021 31
65 7 146 -58 194 -31 23 -111 32 -148 17z"/>
</g>
</svg>
